<?xml version="1.0" encoding="utf-8"?>
<!DOCTYPE svg PUBLIC "-//W3C//DTD SVG 1.1//EN" "http://www.w3.org/Graphics/SVG/1.1/DTD/svg11.dtd">
<svg version="1.1" id="Layer_1" xmlns="http://www.w3.org/2000/svg" xmlns:xlink="http://www.w3.org/1999/xlink" x="0px" y="0px"
	 width="100px" height="100px" viewBox="46.5 -3.662 100 100" enable-background="new 46.5 -3.662 100 100" xml:space="preserve">
<g>
	<path fill="#282828" d="M71.178,24.189c-1.537,3.116-1.598,7.496-2.329,10.919C87.481,39.195,90.834,19.733,71.178,24.189z"/>
	<path fill="#282828" d="M93.531,24.189c-1.537,3.115-1.599,7.495-2.329,10.918C109.799,39.195,113.138,19.733,93.531,24.189z"/>
	<path fill="#282828" d="M113.919,33.918c-1.538,3.115-1.599,7.494-2.329,10.918C130.184,48.922,133.51,29.479,113.919,33.918z"/>
	<path fill="#282828" d="M68.228,40.592c-1.552,3.114-1.634,7.496-2.38,10.92C84.448,55.59,87.849,36.148,68.228,40.592z"/>
	<path fill="#282828" d="M90.53,40.592c-1.537,3.115-1.598,7.496-2.329,10.92C106.796,55.597,110.136,36.136,90.53,40.592z"/>
	<path fill="#282828" d="M110.71,51.045c-1.552,3.112-1.633,7.496-2.38,10.919C126.931,66.043,130.329,46.6,110.71,51.045L110.71,51.045z"/>
	<path fill="#282828" d="M87.321,57.669c-1.537,3.115-1.598,7.495-2.328,10.918C103.588,72.673,106.93,53.21,87.321,57.669z"/>
</g>
</svg>
