<?xml version="1.0" encoding="utf-8"?>
<!DOCTYPE svg PUBLIC "-//W3C//DTD SVG 1.1//EN" "http://www.w3.org/Graphics/SVG/1.1/DTD/svg11.dtd">
<svg version="1.1" id="Layer_1" xmlns="http://www.w3.org/2000/svg" xmlns:xlink="http://www.w3.org/1999/xlink" x="0px" y="0px"
	 width="175px" height="100px" viewBox="-37.5 0 175 100" enable-background="new -37.5 0 175 100" xml:space="preserve">
<path fill="#282828" d="M41.9,7.016h17.2c1.582,0,2.867,1.284,2.867,2.867v17.2c0,1.583-1.285,2.866-2.867,2.866H41.9
	c-1.584,0-2.867-1.283-2.867-2.866v-17.2C39.033,8.3,40.315,7.016,41.9,7.016z"/>
<path fill="#282828" d="M73.434,7.016h17.2c1.581,0,2.866,1.284,2.866,2.867v17.2c0,1.583-1.285,2.866-2.866,2.866h-17.2
	c-1.584,0-2.867-1.283-2.867-2.866v-17.2C70.566,8.3,71.85,7.016,73.434,7.016z"/>
<path fill="#282828" d="M10.367,7.016h17.2c1.582,0,2.867,1.284,2.867,2.867v17.2c0,1.583-1.285,2.866-2.867,2.866h-17.2
	c-1.584,0-2.867-1.283-2.867-2.866v-17.2C7.5,8.3,8.782,7.016,10.367,7.016z"/>
<path fill="#282828" d="M41.9,38.549h17.2c1.582,0,2.867,1.282,2.867,2.867v17.199c0,1.585-1.285,2.867-2.867,2.867H41.9
	c-1.584,0-2.867-1.282-2.867-2.867V41.416C39.033,39.832,40.315,38.549,41.9,38.549z"/>
<path fill="#282828" d="M73.434,38.549h17.2c1.581,0,2.866,1.282,2.866,2.867v17.199c0,1.585-1.285,2.867-2.866,2.867h-17.2
	c-1.584,0-2.867-1.282-2.867-2.867V41.416C70.566,39.832,71.85,38.549,73.434,38.549z"/>
<path fill="#282828" d="M10.367,38.549h17.2c1.582,0,2.867,1.282,2.867,2.867v17.199c0,1.585-1.285,2.867-2.867,2.867h-17.2
	c-1.584,0-2.867-1.282-2.867-2.867V41.416C7.5,39.832,8.782,38.549,10.367,38.549z"/>
<path fill="#282828" d="M41.9,70.082h17.2c1.582,0,2.867,1.282,2.867,2.867v17.199c0,1.584-1.285,2.867-2.867,2.867H41.9
	c-1.584,0-2.867-1.283-2.867-2.867V72.949C39.033,71.364,40.315,70.082,41.9,70.082z"/>
<path fill="#282828" d="M73.434,70.082h17.2c1.581,0,2.866,1.282,2.866,2.867v17.199c0,1.584-1.285,2.867-2.866,2.867h-17.2
	c-1.584,0-2.867-1.283-2.867-2.867V72.949C70.566,71.364,71.85,70.082,73.434,70.082z"/>
<path fill="#282828" d="M10.367,70.082h17.2c1.582,0,2.867,1.282,2.867,2.867v17.199c0,1.584-1.285,2.867-2.867,2.867h-17.2
	c-1.584,0-2.867-1.283-2.867-2.867V72.949C7.5,71.364,8.782,70.082,10.367,70.082z"/>
</svg>
