<?xml version="1.0" encoding="utf-8"?>
<!DOCTYPE svg PUBLIC "-//W3C//DTD SVG 1.1//EN" "http://www.w3.org/Graphics/SVG/1.1/DTD/svg11.dtd">
<svg version="1.1" id="apple-logo" xmlns:svg="http://www.w3.org/2000/svg"
	 xmlns="http://www.w3.org/2000/svg" xmlns:xlink="http://www.w3.org/1999/xlink" x="0px" y="0px" width="100px" height="100px"
	 viewBox="323.816 404.632 100 100" enable-background="new 323.816 404.632 100 100" xml:space="preserve">
<g>
	<g>
		<g>
			<defs>
				<rect fill="#282828" id="SVGID_1_" x="339.21" y="412.132" width="69.213" height="85"/>
			</defs>
			<clipPath id="SVGID_2_">
				<use xlink:href="#SVGID_1_"  overflow="visible"/>
			</clipPath>
			<path fill="#282828" clip-path="url(#SVGID_2_)" d="M397.014,457.291c-0.098-10.757,8.785-15.921,9.186-16.173
				c-4.997-7.312-12.777-8.314-15.551-8.433c-6.616-0.669-12.917,3.895-16.27,3.895c-3.354,0-8.54-3.798-14.024-3.69
				c-7.223,0.107-13.87,4.194-17.587,10.655c-7.496,13.002-1.913,32.271,5.383,42.824c3.572,5.159,7.826,10.972,13.42,10.758
				c5.39-0.215,7.424-3.482,13.927-3.482c6.504,0,8.336,3.482,14.03,3.379c5.793-0.11,9.468-5.27,13.014-10.445
				c4.092-5.989,5.786-11.785,5.882-12.09C408.294,474.433,397.13,470.153,397.014,457.291"/>
		</g>
	</g>
	<path fill="#282828" d="M386.312,425.709c2.969-3.595,4.973-8.594,4.42-13.575c-4.275,0.172-9.449,2.85-12.519,6.444
		c-2.749,3.177-5.159,8.267-4.506,13.146C378.474,432.094,383.346,429.297,386.312,425.709"/>
</g>
</svg>
