<?xml version="1.0" encoding="utf-8"?>
<!DOCTYPE svg PUBLIC "-//W3C//DTD SVG 1.1//EN" "http://www.w3.org/Graphics/SVG/1.1/DTD/svg11.dtd">
<svg version="1.1" id="Layer_1" xmlns="http://www.w3.org/2000/svg" xmlns:xlink="http://www.w3.org/1999/xlink" x="0px" y="0px"
	 width="100px" height="100px" viewBox="-0.263 -0.218 100 100" enable-background="new -0.263 -0.218 100 100"
	 xml:space="preserve">
<path fill="#282828" d="M64.469,12.282H35.003c-4.436,0-8.033,3.598-8.033,8.035v58.93c0,4.438,3.597,8.035,8.033,8.035h29.465
	c4.438,0,8.037-3.598,8.037-8.035v-58.93C72.506,15.88,68.904,12.282,64.469,12.282z M45.495,14.737h9.237
	c0.616,0,1.118,0.498,1.118,1.116c0,0.616-0.502,1.116-1.118,1.116h-9.237c-0.616,0-1.115-0.5-1.115-1.116
	C44.38,15.235,44.879,14.737,45.495,14.737z M49.737,81.253c-1.604,0-2.904-1.3-2.904-2.902c0-1.604,1.301-2.902,2.904-2.902
	c1.601,0,2.902,1.299,2.902,2.902C52.639,79.954,51.34,81.253,49.737,81.253z M68.26,71.434H31.658V19.87h36.604L68.26,71.434
	L68.26,71.434z"/>
</svg>
