<?xml version="1.0" encoding="utf-8"?>
<!DOCTYPE svg PUBLIC "-//W3C//DTD SVG 1.1//EN" "http://www.w3.org/Graphics/SVG/1.1/DTD/svg11.dtd">
<svg version="1.1" id="Layer_1" xmlns:svg="http://www.w3.org/2000/svg"
	 xmlns="http://www.w3.org/2000/svg" xmlns:xlink="http://www.w3.org/1999/xlink" x="0px" y="0px" width="100px" height="100px"
	 viewBox="72.958 29.963 100 100" enable-background="new 72.958 29.963 100 100" xml:space="preserve">
<g>
	<path fill="#282828" d="M124.539,55.34v48.539c10.381-6.03,21.403-5.438,32.919,0.147V55.884C146.04,50.447,135.116,50.743,124.539,55.34"/>
	<path fill="#282828" d="M117.422,58.75v6.129l6.129-3.212v-5.883L117.422,58.75"/>
	<path fill="#282828" d="M117.422,65.769v6.129l6.129-3.212v-5.932L117.422,65.769"/>
	<path fill="#282828" d="M117.422,72.689v6.13l6.129-3.164v-5.931L117.422,72.689"/>
	<path fill="#282828" d="M117.422,79.708v6.13l6.129-3.212v-5.883L117.422,79.708"/>
	<path fill="#282828" d="M117.422,86.628v6.079l6.129-3.165v-5.931L117.422,86.628"/>
	<path fill="#282828" d="M117.422,93.745v6.129l6.129-3.163v-5.932L117.422,93.745"/>
	<path fill="#282828" d="M117.422,100.764v6.129l6.129-3.213v-5.883L117.422,100.764"/>
	<path fill="#282828" d="M110.503,60.876l5.683-2.868v5.536l-5.683,2.868V60.876"/>
	<path fill="#282828" d="M110.503,81.686l5.683-2.867v5.535l-5.683,2.917V81.686"/>
	<path fill="#282828" d="M110.503,102.542l5.683-2.866v5.536l-5.683,2.865V102.542"/>
	<path fill="#282828" d="M104.373,60.629l4.844-2.274v4.844l-4.844,2.324V60.629"/>
	<path fill="#282828" d="M104.373,81.488l4.844-2.274v4.845l-4.844,2.321V81.488"/>
	<path fill="#282828" d="M104.373,102.296l4.844-2.274v4.844l-4.844,2.323V102.296"/>
	<path fill="#282828" d="M98.689,64.385l3.954-1.779v-3.608l-3.954,1.878V64.385"/>
	<path fill="#282828" d="M98.689,85.194l3.954-1.779v-3.608l-3.954,1.88V85.194"/>
	<path fill="#282828" d="M98.689,106.052l3.954-1.779v-3.608l-3.954,1.878V106.052"/>
	<path fill="#282828" d="M93.35,58.553l2.867-1.73v3.015l-2.867,1.631V58.553"/>
	<path fill="#282828" d="M93.35,79.362l2.867-1.729v3.063l-2.867,1.632V79.362"/>
	<path fill="#282828" d="M93.35,100.22l2.867-1.729v3.063l-2.867,1.583V100.22"/>
	<path fill="#282828" d="M88.458,56.921l2.224-1.137v2.176l-2.224,0.988V56.921"/>
	<path fill="#282828" d="M88.458,77.681l2.224-1.087v2.174l-2.224,0.989V77.681"/>
	<path fill="#282828" d="M88.458,98.589l2.224-1.138v2.175l-2.224,0.989V98.589"/>
	<path fill="#FFFFFF" d="M124.489,62.111c4.351-1.928,7.909-2.965,11.024-3.164v15.323c-3.709,0.296-7.365,1.433-11.024,3.114
		V62.111"/>
	<path fill="#FFFFFF" d="M139.812,58.256v15.669h4.351c1.927,0,5.091,0.988,6.523,1.532V59.986
		C147.078,58.454,143.422,57.91,139.812,58.256"/>
	<path fill="#FFFFFF" d="M139.812,78.423v15.074c4.202-0.197,7.414,0.445,10.874,1.583V79.856
		C147.078,78.423,143.422,77.977,139.812,78.423"/>
	<path fill="#FFFFFF" d="M124.489,82.179c4.054-1.978,7.711-2.866,11.024-3.114v14.631c-3.905,0.691-7.662,1.73-11.024,3.312V82.179
		"/>
</g>
</svg>
