<?xml version="1.0" encoding="utf-8"?>
<!DOCTYPE svg PUBLIC "-//W3C//DTD SVG 1.1//EN" "http://www.w3.org/Graphics/SVG/1.1/DTD/svg11.dtd">
<svg version="1.1" id="Layer_1" xmlns="http://www.w3.org/2000/svg" xmlns:xlink="http://www.w3.org/1999/xlink" x="0px" y="0px"
	 width="100px" height="100px" viewBox="169.182 205.5 100 100" enable-background="new 169.182 205.5 100 100"
	 xml:space="preserve">
<g>
	<path fill="#282828" d="M196.661,241.029h45.043v36.706c0,2.18-1.769,3.948-3.945,3.948h-4.513v11.179c0,2.839-2.264,5.139-5.059,5.139
		c-2.803,0-5.063-2.3-5.063-5.139v-11.179h-7.879v11.179c0,2.839-2.27,5.139-5.063,5.139c-2.795,0-5.063-2.3-5.063-5.139v-11.179
		h-4.509c-2.178,0-3.948-1.769-3.948-3.948V241.029L196.661,241.029z"/>
	<path fill="#282828" d="M187.834,240.729c-2.823,0-5.111,2.323-5.111,5.189v20.283c0,2.863,2.288,5.191,5.111,5.191s5.11-2.328,5.11-5.191v-20.283
		C192.944,243.052,190.657,240.729,187.834,240.729z"/>
	<path fill="#282828" d="M241.704,237.33h-45.043c0.556-6.417,4.718-11.939,10.711-15.137l-4.283-6.288c-0.577-0.848-0.359-2.005,0.49-2.583
		c0.849-0.577,2.004-0.357,2.585,0.49l4.667,6.858c2.588-0.895,5.396-1.409,8.352-1.409c2.958,0,5.768,0.514,8.355,1.41l4.667-6.857
		c0.573-0.85,1.732-1.069,2.581-0.492c0.85,0.578,1.066,1.735,0.49,2.583l-4.28,6.288
		C236.988,225.389,241.149,230.911,241.704,237.33z"/>
	<path fill="#282828" d="M250.534,240.722c-2.82,0-5.113,2.326-5.113,5.193v20.291c0,2.867,2.293,5.194,5.113,5.194
		c2.825,0,5.106-2.327,5.106-5.194v-20.291C255.643,243.048,253.359,240.722,250.534,240.722z"/>
</g>
</svg>
