<?xml version="1.0" encoding="utf-8"?>
<!-- Generator: Adobe Illustrator 16.0.0, SVG Export Plug-In . SVG Version: 6.00 Build 0)  -->
<!DOCTYPE svg PUBLIC "-//W3C//DTD SVG 1.1//EN" "http://www.w3.org/Graphics/SVG/1.1/DTD/svg11.dtd">
<svg version="1.1" id="Layer_1" xmlns="http://www.w3.org/2000/svg" xmlns:xlink="http://www.w3.org/1999/xlink" x="0px" y="0px"
	 width="100px" height="100px" viewBox="0 0 100 100" enable-background="new 0 0 100 100" xml:space="preserve">
<path fill="#282828" d="M79.104,4.394H20.898c-4.845,0-8.77,4.229-8.77,9.448V86.79c0,5.217,3.925,9.444,8.77,9.444h58.205
	c4.84,0,8.768-4.229,8.768-9.444V13.841C87.868,8.622,83.941,4.394,79.104,4.394z M50,92.04c-1.155,0-2.088-0.936-2.088-2.09
	c0-1.156,0.933-2.093,2.088-2.093c1.152,0,2.089,0.937,2.089,2.093C52.089,91.104,51.151,92.04,50,92.04z M79.711,83.38H20.289
	V14.104h59.422V83.38z"/>
</svg>
